<?xml version="1.0" encoding="UTF-8"?>
<svg version="1.1" xmlns="http://www.w3.org/2000/svg" width="512" height="512">
<path d="M0 0 C168.96 0 337.92 0 512 0 C512 168.96 512 337.92 512 512 C343.04 512 174.08 512 0 512 C0 343.04 0 174.08 0 0 Z " fill="#2F3A55" transform="translate(0,0)"/>
<path d="M0 0 C2.48221623 2.19885821 4.87467188 4.46405975 7.25390625 6.7734375 C7.92808594 7.37414062 8.60226562 7.97484375 9.296875 8.59375 C25.23999749 23.2957911 35.31724808 46.10706182 36.39428711 67.57104492 C37.3354632 97.11834131 31.06590932 121.45720214 10.40234375 143.53125 C9.33886719 144.64113281 9.33886719 144.64113281 8.25390625 145.7734375 C7.66867187 146.41023437 7.0834375 147.04703125 6.48046875 147.703125 C-9.81533705 164.91700436 -35.65483977 174.43288054 -58.93920898 175.23071289 C-86.77471701 175.63634316 -111.2735286 165.44548389 -131.74609375 146.7734375 C-134.2471201 144.22412879 -136.5284391 141.57083435 -138.74609375 138.7734375 C-139.23335938 138.18433594 -139.720625 137.59523438 -140.22265625 136.98828125 C-155.71654023 117.47593004 -163.46045625 91.60829443 -160.74609375 66.7734375 C-157.65706026 47.02147515 -151.24233352 30.44624242 -138.74609375 14.7734375 C-138.08738281 13.92007813 -137.42867188 13.06671875 -136.75 12.1875 C-134.92501732 9.98898285 -133.10609781 8.18101733 -130.93359375 6.3359375 C-130.23234375 5.73910156 -129.53109375 5.14226562 -128.80859375 4.52734375 C-128.12796875 3.94855469 -127.44734375 3.36976563 -126.74609375 2.7734375 C-126.18921875 2.26683594 -125.63234375 1.76023438 -125.05859375 1.23828125 C-90.76822729 -29.67250582 -35.18085224 -28.52501533 0 0 Z " fill="#1BBB9B" transform="translate(415.74609375,179.2265625)"/>
<path d="M0 0 C0 0.66 0 1.32 0 2 C1.32 2 2.64 2 4 2 C5.28127476 3.41268756 6.55355833 4.83869525 7.71484375 6.3515625 C9.60590461 8.77717855 11.8002224 10.85521684 14 13 C15.11375 14.1446875 15.11375 14.1446875 16.25 15.3125 C18.56614205 17.57600246 20.93093241 19.69154643 23.375 21.8125 C27.07481761 25.06366863 30.27878407 28.50883619 33.453125 32.265625 C35.05271408 34.15625549 35.05271408 34.15625549 37.5 36 C40.51419509 38.41135607 42.81045115 41.19130664 45.30859375 44.12109375 C47.33638271 46.37367225 49.63032087 48.1164089 52 50 C53.60744049 51.79937368 55.14761117 53.63834939 56.66796875 55.51171875 C57.95079945 57.12882545 57.95079945 57.12882545 60 58 C60 58.66 60 59.32 60 60 C60.55429688 59.4946875 61.10859375 58.989375 61.6796875 58.46875 C62.40414062 57.8190625 63.12859375 57.169375 63.875 56.5 C64.59429687 55.8503125 65.31359375 55.200625 66.0546875 54.53125 C68 53 68 53 70 53 C70.66 51.35 71.32 49.7 72 48 C72.66 48 73.32 48 74 48 C74 47.34 74 46.68 74 46 C75.5390625 44.51953125 75.5390625 44.51953125 77.625 42.8125 C81.08787267 39.8899337 83.97510908 36.84169098 86.7734375 33.28515625 C87.17820312 32.86105469 87.58296875 32.43695313 88 32 C88.66 32 89.32 32 90 32 C90 31.34 90 30.68 90 30 C91.64351457 28.63823078 93.31522656 27.31037934 95 26 C96.68087447 24.3476633 98.34534921 22.67859653 100 21 C100.97834044 20.0200078 101.95753159 19.04086427 102.9375 18.0625 C103.44023437 17.55976563 103.94296875 17.05703125 104.4609375 16.5390625 C109.0625 11.9375 109.0625 11.9375 110.55639648 10.44799805 C111.93472423 9.06547448 113.29785046 7.66784513 114.66015625 6.26953125 C118.3446393 2.69576722 121.85553446 0.30635222 127.0625 -0.4375 C133.76250142 0.56037255 137.05148057 3.87940267 141.20703125 8.87890625 C144.73655345 13.05435408 148.73403045 16.79291275 152.6875 20.5625 C156.27685644 24.34587571 158.74880062 27.24160434 159.5 32.5 C158.90267727 36.68125909 157.58801477 38.69309224 155 42 C154.071875 43.2684375 154.071875 43.2684375 153.125 44.5625 C150.65368774 47.39724053 147.91125496 49.62346534 145 52 C143.31183067 53.64488294 141.64646685 55.31337542 140 57 C139.4534375 57.53625 138.906875 58.0725 138.34375 58.625 C135.43591406 61.48182128 132.65770544 64.35472384 130.0625 67.5 C127.28103787 70.81693078 124.17333773 73.57242338 120.8828125 76.375 C118.46133317 78.46490747 116.23070989 80.70900065 114 83 C113.175 83.804375 112.35 84.60875 111.5 85.4375 C108.83302891 88.17114537 106.43799451 91.06190405 104 94 C102.68456137 95.35099103 101.35824882 96.69205669 100 98 C103.91237815 102.68491174 107.9808312 107.11962651 112.31640625 111.4140625 C112.89535141 111.99159271 113.47429657 112.56912292 114.07078552 113.16415405 C115.89899259 114.98682834 117.73065875 116.80597897 119.5625 118.625 C120.79385366 119.85132772 122.02497533 121.07788843 123.25585938 122.3046875 C125.51883317 124.55954918 127.78314046 126.81305241 130.04907227 129.06494141 C131.94729463 130.95147566 133.84126704 132.84194342 135.73291016 134.73510742 C137.29633641 136.2970184 138.87184555 137.84689608 140.45703125 139.38671875 C141.23433594 140.14597656 142.01164063 140.90523437 142.8125 141.6875 C143.60269531 142.45449219 144.39289063 143.22148437 145.20703125 144.01171875 C147 146 147 146 147 148 C147.556875 148.2475 148.11375 148.495 148.6875 148.75 C153.861072 151.54652541 156.95750624 154.41001707 159 160 C159.71564266 164.36367477 159.39826684 167.21878429 157.375 171.1875 C155.26860529 173.68191478 153.1271471 175.65331989 150.5625 177.66015625 C148.87328183 179.10866083 147.53478972 180.6549033 146.125 182.375 C141.25398598 188.23044467 134.92612486 194.99238355 127.25 196.5625 C117.10614723 194.80683317 109.45711093 184.84848422 102.52734375 177.8203125 C101.35259457 176.63995682 100.17717293 175.46027007 99.00111389 174.28121948 C95.93176711 171.2005069 92.87154382 168.11088885 89.81323242 165.01922607 C86.68115552 161.85626868 83.54039601 158.7019581 80.40039062 155.546875 C74.25847243 149.37293877 68.12618052 143.18955233 62 137 C58.99256061 138.4262163 57.2442483 139.61831053 55.1875 142.25 C53.09681067 144.80000744 50.98245105 146.96568164 48.4375 149.0625 C46.13044709 150.96569245 44.44681821 152.66381815 42.5 155 C40.0769038 157.90771544 37.5780382 160.16336038 34.6875 162.57421875 C30.943733 165.73735522 27.70724655 169.3089016 24.5 173 C19.48831897 178.7628966 14.00352277 183.83880799 8.3046875 188.9140625 C6.94998321 190.14018468 5.61674781 191.39226989 4.33984375 192.69921875 C1.67107922 195.29017674 -1.33173546 195.91468963 -4.9375 196.375 C-12.95877792 195.3928027 -18.7926242 187.53940829 -24.1875 182.125 C-25.08919922 181.23941406 -25.99089844 180.35382813 -26.91992188 179.44140625 C-27.78552734 178.57644531 -28.65113281 177.71148437 -29.54296875 176.8203125 C-30.7189563 175.64879639 -30.7189563 175.64879639 -31.91870117 174.45361328 C-34.85553244 170.9914251 -36.6896919 167.58601919 -37.5625 163.125 C-35.86706156 153.70589755 -25.38715523 146.13054589 -18.8203125 139.625 C-17.6401762 138.44860067 -16.46048573 137.27175393 -15.28121948 136.09448242 C-12.19830932 133.01915487 -9.10943796 129.94988504 -6.01922607 126.88189697 C-2.85810698 123.74135291 0.29725426 120.59503517 3.453125 117.44921875 C9.62984009 111.29385862 15.81287368 105.14489501 22 99 C20.42624052 95.13207502 17.8039324 92.55999654 14.86352539 89.69995117 C14.34135941 89.1839183 13.81919342 88.66788544 13.28120422 88.13621521 C12.14949747 87.01878814 11.01556099 85.90361576 9.87965584 84.79045677 C8.07954078 83.02520412 6.28667551 81.25288204 4.49571228 79.47834778 C-0.59656836 74.43489574 -5.69983707 69.40267444 -10.81225586 64.37963867 C-13.94187329 61.30374414 -17.06155093 58.21805037 -20.17541695 55.12621498 C-21.36091954 53.95308834 -22.55019874 52.78376496 -23.74336052 51.61842918 C-25.41627634 49.98417719 -27.07629006 48.3377559 -28.73413086 46.68823242 C-29.4706488 45.97799927 -29.4706488 45.97799927 -30.2220459 45.25341797 C-34.04164064 41.41195572 -36.6998615 37.20329637 -37.21484375 31.70703125 C-36.722697 28.34518376 -36.15547655 26.20061491 -34.0625 23.5 C-32 22 -32 22 -30 22 C-30 21.34 -30 20.68 -30 20 C-29.34 20 -28.68 20 -28 20 C-27.76796875 19.44183594 -27.5359375 18.88367188 -27.296875 18.30859375 C-21.58495662 8.14069086 -11.50421557 -0.18555186 0 0 Z " fill="#E05042" transform="translate(96,158)"/>
<path d="M0 0 C10.84950659 8.5434655 18.36447387 18.84774673 20.8125 32.75 C22.33461005 48.1000641 20.01319337 62.04541564 10.8125 74.75 C8.25 77.5625 8.25 77.5625 5.8125 79.75 C5.02875 80.575 4.245 81.4 3.4375 82.25 C-7.30852425 92.48430881 -20.41800731 96.09854726 -35.01733398 96.12939453 C-43.64337001 95.91680592 -51.27323685 92.96200442 -59.1875 89.75 C-59.1875 89.09 -59.1875 88.43 -59.1875 87.75 C-59.73792969 87.67523438 -60.28835938 87.60046875 -60.85546875 87.5234375 C-68.75539904 84.90336012 -75.66241817 75.68023075 -79.68359375 68.78125 C-86.33807924 55.36857276 -88.62850555 42.4920326 -84.5625 27.875 C-79.04590644 12.28629833 -68.75515629 1.38856038 -54.25 -6.2734375 C-36.78706861 -14.43897486 -15.266017 -11.04552413 0 0 Z " fill="#242F46" transform="translate(386.1875,213.25)"/>
<path d="M0 0 C1.32 0.33 2.64 0.66 4 1 C3.505 1.763125 3.01 2.52625 2.5 3.3125 C0.75631692 5.92363751 0.75631692 5.92363751 1 9 C-1 10.6875 -1 10.6875 -3 12 C-2.505 14.475 -2.505 14.475 -2 17 C-2.78375 17.268125 -3.5675 17.53625 -4.375 17.8125 C-7.54052642 19.24452386 -8.4944831 20.85923177 -9.8828125 23.9921875 C-11.22054749 26.39636857 -12.6512072 27.52219085 -14.875 29.125 C-15.55304688 29.62257813 -16.23109375 30.12015625 -16.9296875 30.6328125 C-18.8975595 31.93235061 -20.86853684 32.99639627 -23 34 C-23 34.66 -23 35.32 -23 36 C-24.609375 37.62109375 -24.609375 37.62109375 -26.75 39.4375 C-27.44609375 40.03433594 -28.1421875 40.63117188 -28.859375 41.24609375 C-34.66146993 46 -34.66146993 46 -37 46 C-39.51202724 47.38822558 -41.80731101 48.84818443 -44.0625 50.625 C-46.12572674 52.08922543 -47.55034039 52.48037523 -50 53 C-50.78375 53.350625 -51.5675 53.70125 -52.375 54.0625 C-55.38830246 55.13867945 -57.82381432 55.14772957 -61 55 C-57.71051237 52.25335885 -54.33741902 50.78213204 -50.375 49.1875 C-29.46714905 40.48041625 -10.30773793 24.18886353 -1.21484375 3.04296875 C-0.81394531 2.03878906 -0.41304688 1.03460938 0 0 Z " fill="#153944" transform="translate(443,296)"/>
<path d="M0 0 C1.32 0 2.64 0 4 0 C4.33 0.99 4.66 1.98 5 3 C5.66 3.33 6.32 3.66 7 4 C7 4.66 7 5.32 7 6 C8.32 6.33 9.64 6.66 11 7 C11 7.99 11 8.98 11 10 C11.66 10 12.32 10 13 10 C15 12 15 12 16.875 14.375 C18.91712455 16.99127627 18.91712455 16.99127627 21.125 19.125 C24.1003166 22.1003166 24.97726805 23.53778364 25.1875 27.8125 C24.95813801 34.75707135 24.95813801 34.75707135 24 38 C22.34211215 39.34423339 20.67423683 40.67618483 19 42 C17.91945766 44.0599103 17.02476027 46.12333756 16.1875 48.29296875 C14.49613488 50.72430611 12.8586605 50.45549324 10 51 C7.2669251 52.82518386 7.2669251 52.82518386 4.6875 55.0625 C3.80449219 55.79597656 2.92148438 56.52945313 2.01171875 57.28515625 C1.34785156 57.85105469 0.68398437 58.41695313 0 59 C-0.66 58.67 -1.32 58.34 -2 58 C-1.278125 57.443125 -0.55625 56.88625 0.1875 56.3125 C5.6123033 51.85210617 10.16071542 46.63898733 14.81640625 41.40234375 C16.2410667 39.8349624 17.70651893 38.3034496 19.21484375 36.81640625 C21.89212999 34.09225285 21.98968367 33.20632666 22.1875 29.25 C22.12607846 25.49646137 21.63472806 22.43292893 20 19 C18.18398635 17.79996657 18.18398635 17.79996657 16 17 C9.59706593 12.50064093 4.78238925 6.12145825 0 0 Z " fill="#402B39" transform="translate(232,293)"/>
<path d="M0 0 C2.475 0.495 2.475 0.495 5 1 C5.99 3.97 6.98 6.94 8 10 C8.99 9.67 9.98 9.34 11 9 C10.9175 10.11375 10.835 11.2275 10.75 12.375 C10.71681418 17.02931055 12.22829477 20.60563808 14.125 24.80078125 C15 27 15 27 15 30 C15.66 30 16.32 30 17 30 C17 30.99 17 31.98 17 33 C17.66 33.33 18.32 33.66 19 34 C18.34 35.98 17.68 37.96 17 40 C17.66 40 18.32 40 19 40 C18.67 42.97 18.34 45.94 18 49 C16.04961173 45.09922346 15.35507167 41.78427733 14.6875 37.5625 C12.68484191 26.16712982 8.53869712 16.36866302 2.59106445 6.49169922 C0 2.18300476 0 2.18300476 0 0 Z " fill="#163644" transform="translate(435,199)"/>
<path d="M0 0 C3.375 1.5 3.375 1.5 6 3 C5.67 3.66 5.34 4.32 5 5 C1.7 3.68 -1.6 2.36 -5 1 C-5 1.66 -5 2.32 -5 3 C-7.30574279 4.53716186 -9.56130602 5.8193613 -12.125 6.875 C-14.19086621 7.90213769 -14.19086621 7.90213769 -15.25 10.25 C-16.96333861 12.94238925 -18.01572692 13.85910123 -20.5625 15.625 C-26.1913742 19.60818844 -30.50443806 24.82273399 -35 30 C-35.99 29.67 -36.98 29.34 -38 29 C-35.12292968 25.04402831 -31.84228851 22.04850638 -28.15234375 18.89453125 C-23.66333658 14.9432273 -19.51244099 10.6231074 -15.4375 6.25 C-10.89328919 2.05534387 -6.43355276 -0.95818871 0 0 Z " fill="#BC5351" transform="translate(226,158)"/>
<path d="M0 0 C1.37529053 0.26935414 2.75020359 0.54063511 4.125 0.8125 C5.01300293 0.98612061 5.90100586 1.15974121 6.81591797 1.33862305 C8.91208879 1.77402611 11.00051555 2.2488592 13.078125 2.765625 C22.12288507 4.95179924 30.59761879 5.36503575 39.875 5.1875 C41.2564955 5.17239548 42.63800734 5.15871747 44.01953125 5.14648438 C47.34678866 5.11158307 50.67316761 5.06255856 54 5 C53.67 5.66 53.34 6.32 53 7 C46.48143918 8.14360716 40.00554829 8.07558776 33.40991211 7.96337891 C29.57974072 7.83518207 29.57974072 7.83518207 26 9 C26 8.34 26 7.68 26 7 C25.319375 7.20496094 24.63875 7.40992188 23.9375 7.62109375 C20.16328065 8.10792789 17.61270047 7.21871987 14 6.0625 C9.84041045 4.74021668 6.37903989 3.72631001 2 4 C2 3.34 2 2.68 2 2 C1.34 1.34 0.68 0.68 0 0 Z " fill="#113440" transform="translate(318,348)"/>
<path d="M0 0 C0.6875 1.8125 0.6875 1.8125 1 4 C-0.84159673 6.48615558 -2.00470711 7.00156904 -5 8 C-5.309375 8.66 -5.61875 9.32 -5.9375 10 C-7 12 -7 12 -9.125 12.75 C-10.053125 12.87375 -10.053125 12.87375 -11 13 C-11.33 14.32 -11.66 15.64 -12 17 C-10.63875 18.0828125 -10.63875 18.0828125 -9.25 19.1875 C-6.42071949 21.53971213 -4.25775015 24.086774 -2 27 C-1.0925 27.86625 -0.185 28.7325 0.75 29.625 C3 32 3 32 3 35 C-2.94 29.06 -8.88 23.12 -15 17 C-14.01 15.35 -13.02 13.7 -12 12 C-11.34 12 -10.68 12 -10 12 C-9.7525 11.4225 -9.505 10.845 -9.25 10.25 C-7.81700012 7.67060021 -6.21575324 5.93878408 -4 4 C-3.34 4 -2.68 4 -2 4 C-1.34 2.68 -0.68 1.36 0 0 Z " fill="#4F3342" transform="translate(210,240)"/>
<path d="M0 0 C1.32 0.33 2.64 0.66 4 1 C-9.67731017 7.40214518 -24.72300082 8.08164378 -39 3 C-39 2.67 -39 2.34 -39 2 C-35.7 1.67 -32.4 1.34 -29 1 C-29 1.99 -29 2.98 -29 4 C-25.85393539 3.85891477 -22.70821132 3.71123864 -19.5625 3.5625 C-18.68400391 3.52318359 -17.80550781 3.48386719 -16.90039062 3.44335938 C-11.23052738 3.17137332 -5.63551047 2.68222355 0 2 C0 1.34 0 0.68 0 0 Z " fill="#11454D" transform="translate(373,303)"/>
<path d="M0 0 C4.26090075 4.26090075 4.26121877 11.14734814 4.328125 16.90307617 C4.32296875 17.69818604 4.3178125 18.4932959 4.3125 19.3125 C4.31121094 20.14048096 4.30992187 20.96846191 4.30859375 21.8215332 C4.20870406 28.21135176 3.26833442 33.99161419 1 40 C0.67 40 0.34 40 0 40 C0.0721875 39.19820313 0.144375 38.39640625 0.21875 37.5703125 C0.7896215 30.57713657 1.10745942 23.63976907 1.125 16.625 C1.12951172 15.88910645 1.13402344 15.15321289 1.13867188 14.39501953 C1.12549155 9.51720219 0.6868413 4.82969358 0 0 Z " fill="#103843" transform="translate(403,236)"/>
<path d="M0 0 C0 4.09266462 -0.21804006 6.09191749 -2.9375 9.25 C-5 11 -5 11 -7 11 C-7 11.66 -7 12.32 -7 13 C-7.99 13.33 -8.98 13.66 -10 14 C-10.28875 14.639375 -10.5775 15.27875 -10.875 15.9375 C-12.40505824 18.74260678 -14.06855803 18.84105782 -17 20 C-19.77152212 22.52056045 -19.77152212 22.52056045 -22 25 C-22 24.01 -22 23.02 -22 22 C-21.01 21.67 -20.02 21.34 -19 21 C-17.79117904 18.99983534 -17.79117904 18.99983534 -17 17 C-16.34 17 -15.68 17 -15 17 C-14.34 15.68 -13.68 14.36 -13 13 C-12.34 13 -11.68 13 -11 13 C-10.7525 12.4225 -10.505 11.845 -10.25 11.25 C-8.81700012 8.67060021 -7.21575324 6.93878408 -5 5 C-4.34 5 -3.68 5 -3 5 C-2.690625 4.360625 -2.38125 3.72125 -2.0625 3.0625 C-1 1 -1 1 0 0 Z " fill="#3E2F40" transform="translate(151,299)"/>
<path d="M0 0 C1.95703125 0.77734375 1.95703125 0.77734375 4 2 C4.6875 5.5625 4.6875 5.5625 5 9 C5.33 9.33 5.66 9.66 6 10 C6.08700342 11.63472882 6.10701063 13.27314055 6.09765625 14.91015625 C6.09443359 15.89951172 6.09121094 16.88886719 6.08789062 17.90820312 C6.07951172 18.94912109 6.07113281 19.99003906 6.0625 21.0625 C6.05798828 22.10728516 6.05347656 23.15207031 6.04882812 24.22851562 C6.03699913 26.8190666 6.02051689 29.40950559 6 32 C4.515 32.495 4.515 32.495 3 33 C3.02356567 32.0867395 3.02356567 32.0867395 3.04760742 31.1550293 C3.66162537 15.29183962 3.66162537 15.29183962 0 0 Z " fill="#2CA795" transform="translate(403,235)"/>
<path d="M0 0 C0.33 0.99 0.66 1.98 1 3 C-1.3125 5.5 -1.3125 5.5 -4 8 C-4.99 8 -5.98 8 -7 8 C-7.04125 8.598125 -7.0825 9.19625 -7.125 9.8125 C-8 12 -8 12 -10.3125 13.75 C-15.5530036 15.5264419 -20.51779408 15.23951385 -26 15 C-26.33 14.01 -26.66 13.02 -27 12 C-26.34773438 12.10699219 -25.69546875 12.21398437 -25.0234375 12.32421875 C-19.38771807 13.09725991 -15.79576855 13.46927938 -11 10 C-8.5835199 7.7111364 -6.24743403 5.37230311 -3.953125 2.9609375 C-2 1 -2 1 0 0 Z " fill="#473144" transform="translate(111,340)"/>
<path d="M0 0 C3.3 0.99 6.6 1.98 10 3 C10.103125 3.94875 10.20625 4.8975 10.3125 5.875 C10.68539295 9.29107501 10.68539295 9.29107501 14 11 C15.32 11 16.64 11 18 11 C17.67 12.65 17.34 14.3 17 16 C14.08462499 14.68285542 12.0152987 13.26341874 9.765625 10.99609375 C9.19199219 10.42052734 8.61835938 9.84496094 8.02734375 9.25195312 C7.44082031 8.65318359 6.85429687 8.05441406 6.25 7.4375 C5.64800781 6.83486328 5.04601562 6.23222656 4.42578125 5.61132812 C0 1.14038584 0 1.14038584 0 0 Z " fill="#463042" transform="translate(214,275)"/>
<path d="M0 0 C1.95793736 2.93690603 2.70418027 5.08709385 3.6875 8.4375 C5.57007118 14.35107284 8.32781442 19.2224617 11.70703125 24.40625 C13 27 13 27 12.69921875 29.34375 C12.46847656 29.8903125 12.23773438 30.436875 12 31 C11.731875 30.443125 11.46375 29.88625 11.1875 29.3125 C9.57244879 26.16740027 7.80802328 23.14299495 5.765625 20.25390625 C1.40870577 13.88511549 0 7.68120916 0 0 Z " fill="#13414C" transform="translate(258,281)"/>
<path d="M0 0 C0.33 0 0.66 0 1 0 C1.06058594 1.05058594 1.12117188 2.10117188 1.18359375 3.18359375 C1.75520881 12.85610429 2.57167927 22.40984653 4 32 C-0.72849772 27.27150228 -1.16950486 20.17605413 -1.25537109 13.77392578 C-1.23061814 3.87049253 -1.23061814 3.87049253 0 0 Z " fill="#184A51" transform="translate(301,244)"/>
<path d="M0 0 C0.51949219 0.39832031 1.03898438 0.79664063 1.57421875 1.20703125 C9.37617869 7.60210097 9.37617869 7.60210097 19 9 C21.26566343 8.56058477 21.26566343 8.56058477 23 8 C22.67 8.99 22.34 9.98 22 11 C16.68026823 12.08565954 13.09120945 11.92121111 8 10 C6.66666667 9 5.33333333 8 4 7 C3.01 7.33 2.02 7.66 1 8 C1.20625 7.4225 1.4125 6.845 1.625 6.25 C2.08955171 3.46268972 1.33184618 2.41969001 0 0 Z " fill="#442D39" transform="translate(207,344)"/>
<path d="M0 0 C0.94875 0.350625 1.8975 0.70125 2.875 1.0625 C2.875 2.3825 2.875 3.7025 2.875 5.0625 C3.535 5.3925 4.195 5.7225 4.875 6.0625 C5.96155844 7.55159175 6.99768499 9.07794858 8 10.625 C8.53882813 11.45128906 9.07765625 12.27757812 9.6328125 13.12890625 C10.04273438 13.76699219 10.45265625 14.40507812 10.875 15.0625 C8.03276803 13.70010782 5.91472359 12.51016831 3.875 10.0625 C3.875 9.4025 3.875 8.7425 3.875 8.0625 C3.318125 7.85625 2.76125 7.65 2.1875 7.4375 C-1.05001302 5.51249226 -2.80731141 3.02399098 -5.125 0.0625 C-3.125 -0.9375 -3.125 -0.9375 0 0 Z " fill="#40435F" transform="translate(125.125,180.9375)"/>
<path d="M0 0 C3.96 0.33 7.92 0.66 12 1 C12 1.33 12 1.66 12 2 C11.05640625 2.09474609 11.05640625 2.09474609 10.09375 2.19140625 C3.71096255 3.10460626 0.18210922 4.91886366 -4.40625 9.44140625 C-6 11 -6 11 -8 12 C-7.67 10.02 -7.34 8.04 -7 6 C-6.01 6 -5.02 6 -4 6 C-4 4.68 -4 3.36 -4 2 C-2.68 2.33 -1.36 2.66 0 3 C0 2.01 0 1.02 0 0 Z " fill="#4C435D" transform="translate(84,156)"/>
<path d="M0 0 C0.66 0.33 1.32 0.66 2 1 C0.54809387 7.13027032 -2.97285953 12.23739067 -7 17 C-7.99 17.33 -8.98 17.66 -10 18 C-10.33 16.35 -10.66 14.7 -11 13 C-9.87926138 12.16094435 -8.75325453 11.32892169 -7.625 10.5 C-6.99851562 10.0359375 -6.37203125 9.571875 -5.7265625 9.09375 C-4 8 -4 8 -2 8 C-1.855625 6.865625 -1.71125 5.73125 -1.5625 4.5625 C-1 1 -1 1 0 0 Z " fill="#183444" transform="translate(401,275)"/>
<path d="M0 0 C2.8125 -0.1875 2.8125 -0.1875 6 0 C7.484375 1.33984375 7.484375 1.33984375 9 3 C10.12106725 3.94679461 11.26767084 4.86416055 12.4375 5.75 C13.01371094 6.19859375 13.58992188 6.6471875 14.18359375 7.109375 C16.00408655 8.21902168 16.00408655 8.21902168 18.22265625 7.640625 C18.80917969 7.42921875 19.39570313 7.2178125 20 7 C20 7.66 20 8.32 20 9 C19.34 9 18.68 9 18 9 C18.66 10.65 19.32 12.3 20 14 C19.56171875 13.64808594 19.1234375 13.29617187 18.671875 12.93359375 C13.49681061 8.90503752 8.06173609 5.62372085 2.34375 2.41796875 C1.5703125 1.95003906 0.796875 1.48210937 0 1 C0 0.67 0 0.34 0 0 Z " fill="#1B4E57" transform="translate(400,169)"/>
<path d="M0 0 C0.99 0 1.98 0 3 0 C7.0449982 5.89895571 6.27748976 12.07303328 6 19 C5.01 19.33 4.02 19.66 3 20 C1.61423077 21.62332967 0.27358732 23.28724465 -1 25 C-1.66 24.67 -2.32 24.34 -3 24 C-2.57847656 23.44570312 -2.15695313 22.89140625 -1.72265625 22.3203125 C-1.17480469 21.59585938 -0.62695312 20.87140625 -0.0625 20.125 C0.48277344 19.40570313 1.02804688 18.68640625 1.58984375 17.9453125 C4.3099381 14.19293858 4.38027591 11.63936607 4 7 C2.87302723 4.46062031 1.52802548 2.33978902 0 0 Z " fill="#553443" transform="translate(250,180)"/>
<path d="M0 0 C1.0326802 2.78823655 1.04509293 3.8677274 0.0625 6.75 C-0.288125 7.4925 -0.63875 8.235 -1 9 C-2.32 9 -3.64 9 -5 9 C-5.33 9.99 -5.66 10.98 -6 12 C-7.65 12 -9.3 12 -11 12 C-10.34 11.01 -9.68 10.02 -9 9 C-8.34 9 -7.68 9 -7 9 C-6.773125 8.443125 -6.54625 7.88625 -6.3125 7.3125 C-4.64103234 4.36753316 -2.44723648 2.31843456 0 0 Z " fill="#433443" transform="translate(235,215)"/>
<path d="M0 0 C5.29012124 4.40843437 10.18808428 9.07559794 15 14 C12.53721199 15.231394 10.7204945 15.07159196 8 15 C8.1546875 13.88625 8.1546875 13.88625 8.3125 12.75 C8.2646337 9.78460048 8.2646337 9.78460048 5.6875 7.6875 C3.10545093 5.73411593 3.10545093 5.73411593 0 6 C0 4 0 2 0 0 Z " fill="#392D3A" transform="translate(192,329)"/>
<path d="M0 0 C5.62332334 2.49925482 9.26234779 6.21113311 13 11 C13.9075 11.86625 14.815 12.7325 15.75 13.625 C18 16 18 16 18 19 C14.99599642 16.02484693 11.99747845 13.04422593 9 10.0625 C8.14148438 9.21236328 7.28296875 8.36222656 6.3984375 7.48632812 C5.58632812 6.67744141 4.77421875 5.86855469 3.9375 5.03515625 C3.18339844 4.2862915 2.42929688 3.53742676 1.65234375 2.76586914 C0 1 0 1 0 0 Z " fill="#502F3C" transform="translate(195,256)"/>
<path d="M0 0 C0.66 0 1.32 0 2 0 C-0.17783068 4.52988782 -2.79158844 8.79930245 -5.34375 13.125 C-6.64818414 15.38930078 -7.86851205 17.64650507 -9 20 C-9.65234375 18.25 -9.65234375 18.25 -10 16 C-9.00390625 14 -9.00390625 14 -7.5625 12 C-5.2716317 8.80402024 -5 8.19458638 -5 4 C-4.01 4 -3.02 4 -2 4 C-1.34 2.68 -0.68 1.36 0 0 Z " fill="#1A4552" transform="translate(273,196)"/>
<path d="M0 0 C0.33 1.65 0.66 3.3 1 5 C2.32 5.33 3.64 5.66 5 6 C5 6.66 5 7.32 5 8 C5.99 8.33 6.98 8.66 8 9 C10.07530387 11.92079805 11 13.37546731 11 17 C9.99403703 16.0479279 8.99538437 15.08812654 8 14.125 C7.443125 13.59132812 6.88625 13.05765625 6.3125 12.5078125 C5 11 5 11 5 9 C4.443125 8.79375 3.88625 8.5875 3.3125 8.375 C0.07498698 6.44999226 -1.68231141 3.96149098 -4 1 C-2 0 -2 0 0 0 Z " fill="#584456" transform="translate(108,164)"/>
<path d="M0 0 C0.33 0.66 0.66 1.32 1 2 C2.32 1.67 3.64 1.34 5 1 C5 3 5 3 3.3203125 4.7265625 C2.59585938 5.35304687 1.87140625 5.97953125 1.125 6.625 C0.40570313 7.25664062 -0.31359375 7.88828125 -1.0546875 8.5390625 C-3 10 -3 10 -5 10 C-5 9.34 -5 8.68 -5 8 C-6.32 7.34 -7.64 6.68 -9 6 C-6.66666667 6 -4.33333333 6 -2 6 C-1.855625 5.195625 -1.71125 4.39125 -1.5625 3.5625 C-1 1 -1 1 0 0 Z " fill="#4E3E54" transform="translate(161,208)"/>
<path d="M0 0 C0.66 0.33 1.32 0.66 2 1 C1.67 1.66 1.34 2.32 1 3 C0.34 3 -0.32 3 -1 3 C-1 3.66 -1 4.32 -1 5 C-1.78375 5.53625 -2.5675 6.0725 -3.375 6.625 C-6.96199089 9.87037271 -7.13952541 12.30650222 -8 17 C-8.33 17 -8.66 17 -9 17 C-9 13.7 -9 10.4 -9 7 C-8.34 7 -7.68 7 -7 7 C-7 6.34 -7 5.68 -7 5 C-4.69064913 2.37211797 -3.36016893 1.12005631 0 0 Z " fill="#4D3D5B" transform="translate(67,175)"/>
<path d="M0 0 C0.33 1.32 0.66 2.64 1 4 C0.01 4.33 -0.98 4.66 -2 5 C-2.45375 5.78375 -2.9075 6.5675 -3.375 7.375 C-5.24744878 10.39972495 -6.92431053 11.30837079 -10 13 C-11.75149165 14.58245275 -11.75149165 14.58245275 -13 16 C-13.66 15.67 -14.32 15.34 -15 15 C-10.05 10.05 -5.1 5.1 0 0 Z " fill="#B75352" transform="translate(102,273)"/>
<path d="M0 0 C0.66 0.33 1.32 0.66 2 1 C2.51084038 6.36382397 1.08523105 8.6993749 -2 13 C-2.76939681 15.22602615 -2.76939681 15.22602615 -3 17 C-3.66 17 -4.32 17 -5 17 C-4.31063929 13.08878502 -3.21749819 9.44491404 -1.9375 5.6875 C-1.57527344 4.61886719 -1.21304687 3.55023438 -0.83984375 2.44921875 C-0.56269531 1.64097656 -0.28554688 0.83273437 0 0 Z " fill="#11323D" transform="translate(450,278)"/>
<path d="M0 0 C0.94875 0.04125 1.8975 0.0825 2.875 0.125 C0.34136932 4.34771781 -1.69120325 6.90810162 -6.125 9.125 C-5.13392857 0.20535714 -5.13392857 0.20535714 0 0 Z " fill="#D25246" transform="translate(118.125,328.875)"/>
<path d="M0 0 C0.625 1.875 0.625 1.875 1 4 C-1.2551922 6.2551922 -3.0047587 6.97723468 -6 8 C-6.99 8 -7.98 8 -9 8 C-7.86560182 4.59680547 -6.69698684 3.31170301 -4 1 C-1.75 0.25 -1.75 0.25 0 0 Z " fill="#2E3254" transform="translate(249,204)"/>
<path d="M0 0 C3.21524305 1.40844718 5.32183868 3.10344786 7.75 5.625 C8.67039063 6.57246094 8.67039063 6.57246094 9.609375 7.5390625 C10.29773438 8.26222656 10.29773438 8.26222656 11 9 C10.01 9 9.02 9 8 9 C6.66018514 9.3062434 5.32488113 9.63451555 4 10 C4 9.34 4 8.68 4 8 C4.66 8 5.32 8 6 8 C5.67 7.34 5.34 6.68 5 6 C4.01 5.67 3.02 5.34 2 5 C2 4.01 2 3.02 2 2 C0.68 2.99 -0.64 3.98 -2 5 C-2.66 4.67 -3.32 4.34 -4 4 C-2.68 2.68 -1.36 1.36 0 0 Z " fill="#45313E" transform="translate(156,294)"/>
<path d="M0 0 C0.66 0 1.32 0 2 0 C2 0.66 2 1.32 2 2 C1.34 2 0.68 2 0 2 C0 1.34 0 0.68 0 0 Z M-3 1 C-2.01 1.66 -1.02 2.32 0 3 C-0.33 3.99 -0.66 4.98 -1 6 C1.475 7.98 1.475 7.98 4 10 C3.67 10.99 3.34 11.98 3 13 C-0.33333333 9.66666667 -3.66666667 6.33333333 -7 3 C-5.68 2.34 -4.36 1.68 -3 1 Z " fill="#26A994" transform="translate(390,208)"/>
<path d="M0 0 C0.625 1.875 0.625 1.875 1 4 C0.34 4.66 -0.32 5.32 -1 6 C-1.99 6 -2.98 6 -4 6 C-4.66 7.32 -5.32 8.64 -6 10 C-6.99 10 -7.98 10 -9 10 C-9.66 11.32 -10.32 12.64 -11 14 C-11 11 -11 11 -10 9 C-9.34 9 -8.68 9 -8 9 C-8 8.34 -8 7.68 -8 7 C-6.25 5.2734375 -6.25 5.2734375 -4 3.375 C-3.2575 2.74335938 -2.515 2.11171875 -1.75 1.4609375 C-1.1725 0.97882813 -0.595 0.49671875 0 0 Z " fill="#C15054" transform="translate(178,197)"/>
<path d="M0 0 C0.66 0.33 1.32 0.66 2 1 C1.505 1.78375 1.01 2.5675 0.5 3.375 C-1.16537965 5.78552327 -1.16537965 5.78552327 -1 8 C-1.886875 7.979375 -2.77375 7.95875 -3.6875 7.9375 C-6.62169631 7.99286219 -9.15493696 8.3305734 -12 9 C-10.67246621 6.34493241 -9.17141061 5.86915629 -6.5625 4.5 C-3.95712077 3.12830757 -2.09139575 2.09139575 0 0 Z " fill="#2AAA98" transform="translate(388,296)"/>
<path d="M0 0 C0.66 0.33 1.32 0.66 2 1 C1.67 1.99 1.34 2.98 1 4 C0.34 4 -0.32 4 -1 4 C-1.33 4.99 -1.66 5.98 -2 7 C-2.99 7 -3.98 7 -5 7 C-5 8.32 -5 9.64 -5 11 C-6.32 11 -7.64 11 -9 11 C-7.59155282 7.78475695 -5.89655214 5.67816132 -3.375 3.25 C-2.74335938 2.63640625 -2.11171875 2.0228125 -1.4609375 1.390625 C-0.73777344 0.70226562 -0.73777344 0.70226562 0 0 Z " fill="#4A3345" transform="translate(221,229)"/>
<path d="M0 0 C3.96 0.33 7.92 0.66 12 1 C12.33 1.99 12.66 2.98 13 4 C12.3709375 3.88140625 11.741875 3.7628125 11.09375 3.640625 C4.32086275 2.62061186 0.83778692 3.43246355 -5 7 C-5 6.34 -5 5.68 -5 5 C-4.34 5 -3.68 5 -3 5 C-3 4.34 -3 3.68 -3 3 C-2.34 3 -1.68 3 -1 3 C-0.67 2.01 -0.34 1.02 0 0 Z " fill="#543C55" transform="translate(217,156)"/>
<path d="M0 0 C0.99 0.33 1.98 0.66 3 1 C-2.0940919 7.70459519 -2.0940919 7.70459519 -5.875 8.9375 C-6.57625 8.958125 -7.2775 8.97875 -8 9 C-8 7 -8 7 -6.35546875 5.23828125 C-5.64003906 4.60277344 -4.92460937 3.96726563 -4.1875 3.3125 C-3.47980469 2.66925781 -2.77210938 2.02601563 -2.04296875 1.36328125 C-1.36878906 0.91339844 -0.69460937 0.46351563 0 0 Z " fill="#CE514D" transform="translate(164,211)"/>
<path d="M0 0 C1.32 0.33 2.64 0.66 4 1 C-6.37357631 7.51936219 -6.37357631 7.51936219 -12 9 C-12 8.34 -12 7.68 -12 7 C-11.01 6.67 -10.02 6.34 -9 6 C-8.67 5.34 -8.34 4.68 -8 4 C-5.09740189 2.6250851 -3.23861295 2 0 2 C0 1.34 0 0.68 0 0 Z " fill="#31AF9B" transform="translate(404,337)"/>
<path d="M0 0 C3.26409906 4.25752052 4.12355522 6.55510216 4.328125 12.02734375 C3.91104348 14.53479815 2.91145604 15.39538295 1 17 C1.01740234 15.78763672 1.01740234 15.78763672 1.03515625 14.55078125 C1.04417969 13.48214844 1.05320313 12.41351563 1.0625 11.3125 C1.07410156 10.25675781 1.08570313 9.20101563 1.09765625 8.11328125 C1.00865425 5.27589738 0.64939838 2.7561081 0 0 Z " fill="#BA5451" transform="translate(251,312)"/>
<path d="M0 0 C1.65 0 3.3 0 5 0 C4.06725891 1.12894876 3.12859878 2.25300876 2.1875 3.375 C1.66542969 4.00148438 1.14335937 4.62796875 0.60546875 5.2734375 C-1 7 -1 7 -4 9 C-4 7.35 -4 5.7 -4 4 C-3.01 4 -2.02 4 -1 4 C-0.67 2.68 -0.34 1.36 0 0 Z " fill="#BF524A" transform="translate(237,340)"/>
<path d="M0 0 C0.99 0 1.98 0 3 0 C3.33 0.99 3.66 1.98 4 3 C1.36 4.98 -1.28 6.96 -4 9 C-2.25 2.25 -2.25 2.25 0 0 Z " fill="#CF5246" transform="translate(248,328)"/>
<path d="M0 0 C0.66 1.32 1.32 2.64 2 4 C1.34 4 0.68 4 0 4 C-0.33 6.97 -0.66 9.94 -1 13 C-2.32 12.67 -3.64 12.34 -5 12 C-3.35 8.04 -1.7 4.08 0 0 Z " fill="#2DA494" transform="translate(405,270)"/>
<path d="M0 0 C1.12894876 0.93274109 2.25300876 1.87140122 3.375 2.8125 C4.00148437 3.33457031 4.62796875 3.85664063 5.2734375 4.39453125 C7 6 7 6 9 9 C8.01 9 7.02 9 6 9 C6 8.34 6 7.68 6 7 C4.35 7.33 2.7 7.66 1 8 C1.020625 7.236875 1.04125 6.47375 1.0625 5.6875 C1.12942841 2.89814214 1.12942841 2.89814214 0 0 Z " fill="#3A2F3B" transform="translate(183,320)"/>
<path d="M0 0 C0 3 0 3 -2.375 5.5625 C-3.24125 6.366875 -4.1075 7.17125 -5 8 C-5.66 8.66 -6.32 9.32 -7 10 C-8.32 9.67 -9.64 9.34 -11 9 C-7.37 6.03 -3.74 3.06 0 0 Z " fill="#2AA598" transform="translate(295,177)"/>
<path d="M0 0 C0 0.66 0 1.32 0 2 C-0.99 2.495 -0.99 2.495 -2 3 C-2 3.66 -2 4.32 -2 5 C-6.455 5.495 -6.455 5.495 -11 6 C-7.42339713 2.12534689 -5.31051586 0 0 0 Z " fill="#2BAA9A" transform="translate(314,167)"/>
<path d="M0 0 C-0.53895377 3.7726764 -1.99535358 5.68212991 -5 8 C-7.13671875 7.60546875 -7.13671875 7.60546875 -9 7 C-7.88121617 5.82737096 -6.75476949 4.66204862 -5.625 3.5 C-4.68527344 2.52546875 -4.68527344 2.52546875 -3.7265625 1.53125 C-2 0 -2 0 0 0 Z " fill="#493242" transform="translate(128,324)"/>
<path d="M0 0 C7.48291572 6.15034169 7.48291572 6.15034169 10 10 C9.67 10.66 9.34 11.32 9 12 C8.7525 11.38125 8.505 10.7625 8.25 10.125 C6.76045906 7.5927804 5.62418952 7.19281342 3 6 C1.25 4.5625 1.25 4.5625 0 3 C0 2.01 0 1.02 0 0 Z " fill="#15434D" transform="translate(276,317)"/>
<path d="M0 0 C0.33 0.66 0.66 1.32 1 2 C-0.0625 5 -0.0625 5 -2 8 C-5.1875 9.375 -5.1875 9.375 -8 10 C-7.04367001 8.70684939 -6.08486149 7.41553147 -5.125 6.125 C-4.59132812 5.40570313 -4.05765625 4.68640625 -3.5078125 3.9453125 C-2 2 -2 2 0 0 Z " fill="#512C37" transform="translate(249,332)"/>
<path d="M0 0 C4.455 0.99 4.455 0.99 9 2 C9 2.66 9 3.32 9 4 C10.32 4.66 11.64 5.32 13 6 C9.37673261 7.2077558 8.35853631 6.54311128 5 5 C5 4.34 5 3.68 5 3 C4.360625 2.87625 3.72125 2.7525 3.0625 2.625 C2.381875 2.41875 1.70125 2.2125 1 2 C0.67 1.34 0.34 0.68 0 0 Z " fill="#10454D" transform="translate(322,298)"/>
<path d="M0 0 C1.33333333 0.66666667 2.66666667 1.33333333 4 2 C4.680625 2.268125 5.36125 2.53625 6.0625 2.8125 C9.20908933 4.74105475 10.3915676 7.78313521 12 11 C9.13302508 9.71480435 7.02392288 8.42870746 5 6 C5 5.34 5 4.68 5 4 C4.360625 3.71125 3.72125 3.4225 3.0625 3.125 C1 2 1 2 0 0 Z " fill="#5E4051" transform="translate(124,185)"/>
<path d="M0 0 C1.98 0 3.96 0 6 0 C6 0.66 6 1.32 6 2 C6.763125 1.95875 7.52625 1.9175 8.3125 1.875 C11 2 11 2 14 4 C14 4.66 14 5.32 14 6 C9.27934033 4.45730076 4.58335908 2.92205381 0 1 C0 0.67 0 0.34 0 0 Z " fill="#19515A" transform="translate(386,163)"/>
<path d="M0 0 C2 2 2 2 3.375 4.8125 C4.95818353 7.91797538 6.74522386 10.35646936 9 13 C6.3361501 12.33403753 4.50495054 11.64046442 2.77734375 9.44921875 C0.73018032 6.02260469 0 4.04200836 0 0 Z " fill="#5F4058" transform="translate(59,192)"/>
<path d="M0 0 C0.99 0.33 1.98 0.66 3 1 C0.03 3.97 -2.94 6.94 -6 10 C-6.33 9.01 -6.66 8.02 -7 7 C-6.34 7 -5.68 7 -5 7 C-5 6.34 -5 5.68 -5 5 C-4.34 5 -3.68 5 -3 5 C-2.67 4.01 -2.34 3.02 -2 2 C-1.34 2 -0.68 2 0 2 C0 1.34 0 0.68 0 0 Z " fill="#4E3D53" transform="translate(71,301)"/>
<path d="M0 0 C0.66 0.33 1.32 0.66 2 1 C0.68139111 5.61513112 -1.21355437 9.09897612 -4 13 C-4.33 11.68 -4.66 10.36 -5 9 C-4.01 8.67 -3.02 8.34 -2 8 C-1.855625 6.865625 -1.71125 5.73125 -1.5625 4.5625 C-1 1 -1 1 0 0 Z " fill="#0A3841" transform="translate(401,275)"/>
<path d="M0 0 C-2.52952288 3.15111212 -4.76756266 3.58798017 -8.6875 4.1875 C-9.68136719 4.34605469 -10.67523438 4.50460938 -11.69921875 4.66796875 C-12.45847656 4.77753906 -13.21773438 4.88710937 -14 5 C-9.43596559 1.4780707 -5.87603248 -0.33577328 0 0 Z " fill="#0E494E" transform="translate(342,205)"/>
<path d="M0 0 C0.7425 0.350625 1.485 0.70125 2.25 1.0625 C5.1322726 2.04509293 6.21176345 2.0326802 9 1 C9 1.66 9 2.32 9 3 C8.34 3 7.68 3 7 3 C7.66 4.65 8.32 6.3 9 8 C7.68388323 7.04663979 6.37221039 6.08714226 5.0625 5.125 C4.33160156 4.59132812 3.60070312 4.05765625 2.84765625 3.5078125 C1 2 1 2 0 0 Z " fill="#1A4151" transform="translate(411,175)"/>
<path d="M0 0 C0.67546875 0.08378906 1.3509375 0.16757812 2.046875 0.25390625 C2.93890625 0.35574219 3.8309375 0.45757812 4.75 0.5625 C6.07257813 0.71912109 6.07257813 0.71912109 7.421875 0.87890625 C9.88432451 0.99456676 11.66538064 0.73638695 14 0 C13.67 0.99 13.34 1.98 13 3 C9.04 3 5.08 3 1 3 C0.67 2.01 0.34 1.02 0 0 Z " fill="#51354B" transform="translate(84,352)"/>
<path d="M0 0 C1.32 0.99 2.64 1.98 4 3 C1.19084526 4.40457737 -0.88810534 4.24895157 -4 4 C-6.375 2.5 -6.375 2.5 -8 1 C-3.25 0.875 -3.25 0.875 -1 2 C-0.67 1.34 -0.34 0.68 0 0 Z " fill="#C15548" transform="translate(224,350)"/>
<path d="M0 0 C1.32 0 2.64 0 4 0 C4 0.66 4 1.32 4 2 C4.763125 1.95875 5.52625 1.9175 6.3125 1.875 C9 2 9 2 12 4 C12 4.66 12 5.32 12 6 C10.55903414 5.57405412 9.12231288 5.13373367 7.6875 4.6875 C6.88699219 4.44386719 6.08648437 4.20023437 5.26171875 3.94921875 C2.90035427 2.95817977 1.66120007 1.91925057 0 0 Z " fill="#30A796" transform="translate(306,341)"/>
<path d="M0 0 C1.32 0.33 2.64 0.66 4 1 C1.69 3.31 -0.62 5.62 -3 8 C-3.33 7.01 -3.66 6.02 -4 5 C-3.67 4.34 -3.34 3.68 -3 3 C-2.34 3.33 -1.68 3.66 -1 4 C-0.67 2.68 -0.34 1.36 0 0 Z " fill="#D05547" transform="translate(105,341)"/>
<path d="M0 0 C1.14926266 0.95421808 2.29430541 1.91352045 3.4375 2.875 C4.07558594 3.40867187 4.71367187 3.94234375 5.37109375 4.4921875 C7 6 7 6 8 8 C5.69 8 3.38 8 1 8 C1.20625 7.4225 1.4125 6.845 1.625 6.25 C2.08955171 3.46268972 1.33184618 2.41969001 0 0 Z " fill="#3C303C" transform="translate(167,304)"/>
<path d="M0 0 C2 3 2 3 2 6 C-1.11257569 6 -3.10765685 5.82638376 -6 5 C-4.02 3.35 -2.04 1.7 0 0 Z " fill="#242E49" transform="translate(238,346)"/>
<path d="M0 0 C1.1725131 0.95117134 2.33787015 1.91117009 3.5 2.875 C4.47453125 3.67550781 4.47453125 3.67550781 5.46875 4.4921875 C5.9740625 4.98976563 6.479375 5.48734375 7 6 C7 6.66 7 7.32 7 8 C5 8 3 8 1 8 C1.20625 7.4225 1.4125 6.845 1.625 6.25 C2.08955171 3.46268972 1.33184618 2.41969001 0 0 Z " fill="#322A38" transform="translate(207,344)"/>
<path d="M0 0 C3.77727089 1.81309003 7.37269822 3.9073259 11 6 C11 6.66 11 7.32 11 8 C6.89160936 6.54997977 3.49655387 4.6020866 0 2 C0 1.34 0 0.68 0 0 Z " fill="#10464D" transform="translate(292,333)"/>
<path d="M0 0 C0.99 0.33 1.98 0.66 3 1 C3 1.66 3 2.32 3 3 C1.04072937 4.7143618 -0.95880212 6.38405168 -3 8 C-3 6.35 -3 4.7 -3 3 C-2.01 2.67 -1.02 2.34 0 2 C0 1.34 0 0.68 0 0 Z " fill="#C55347" transform="translate(225,221)"/>
<path d="M0 0 C0.33 0 0.66 0 1 0 C1.38281159 5.23175837 0.21854707 8.37802694 -2 13 C-3.18771723 9.57056481 -2.80226223 7.62215325 -1.5625 4.25 C-1.27503906 3.45078125 -0.98757813 2.6515625 -0.69140625 1.828125 C-0.46324219 1.22484375 -0.23507812 0.6215625 0 0 Z " fill="#2DA597" transform="translate(262,219)"/>
<path d="M0 0 C0.33 1.32 0.66 2.64 1 4 C-0.65 5.32 -2.3 6.64 -4 8 C-4.33 7.01 -4.66 6.02 -5 5 C-3.35 3.35 -1.7 1.7 0 0 Z " fill="#CD5046" transform="translate(73,171)"/>
<path d="M0 0 C0.33 0.99 0.66 1.98 1 3 C-0.8125 5 -0.8125 5 -3 7 C-3.99 7 -4.98 7 -6 7 C-5.25 5.0625 -5.25 5.0625 -4 3 C-1.875 2.25 -1.875 2.25 0 2 C0 1.34 0 0.68 0 0 Z " fill="#CE5252" transform="translate(210,166)"/>
<path d="M0 0 C0 0.99 0 1.98 0 3 C-0.99 3.33 -1.98 3.66 -3 4 C-3 4.66 -3 5.32 -3 6 C-4.65 6.33 -6.3 6.66 -8 7 C-5.61042731 3.75700849 -3.7952131 1.49097658 0 0 Z " fill="#C6514B" transform="translate(74,303)"/>
<path d="M0 0 C0.99 0 1.98 0 3 0 C2.6875 1.875 2.6875 1.875 2 4 C1.01 4.66 0.02 5.32 -1 6 C-1.625 4.125 -1.625 4.125 -2 2 C-1.34 1.34 -0.68 0.68 0 0 Z " fill="#424063" transform="translate(98,272)"/>
<path d="M0 0 C0.66 0.33 1.32 0.66 2 1 C2.29296875 6.95703125 2.29296875 6.95703125 2 9 C1.01 9.99 0.02 10.98 -1 12 C-0.67 8.04 -0.34 4.08 0 0 Z " fill="#143542" transform="translate(452,264)"/>
<path d="M0 0 C0.99 0 1.98 0 3 0 C2.34 3.3 1.68 6.6 1 10 C0.67 10 0.34 10 0 10 C-1.125 2.25 -1.125 2.25 0 0 Z " fill="#204D58" transform="translate(257,226)"/>
<path d="M0 0 C2.475 0.495 2.475 0.495 5 1 C5 1.99 5 2.98 5 4 C5.66 4 6.32 4 7 4 C7.33 4.99 7.66 5.98 8 7 C4.2047869 5.50902342 2.38957269 3.24299151 0 0 Z " fill="#594150" transform="translate(140,201)"/>
<path d="M0 0 C0.66 0.33 1.32 0.66 2 1 C1.67 1.66 1.34 2.32 1 3 C0.34 3 -0.32 3 -1 3 C-1 3.66 -1 4.32 -1 5 C-2.98 5.99 -2.98 5.99 -5 7 C-4.49396008 4.83125748 -4.00016187 3.00032373 -3 1 C-2.01 0.67 -1.02 0.34 0 0 Z " fill="#694252" transform="translate(67,175)"/>
<path d="M0 0 C1.32 0 2.64 0 4 0 C3.1875 2.4375 3.1875 2.4375 2 5 C1.01 5.33 0.02 5.66 -1 6 C-1.042721 4.33388095 -1.04063832 2.66617115 -1 1 C-0.67 0.67 -0.34 0.34 0 0 Z " fill="#3F476F" transform="translate(67,170)"/>
<path d="M0 0 C0.66 0.33 1.32 0.66 2 1 C1.2884375 1.61875 1.2884375 1.61875 0.5625 2.25 C-1.16266518 4.182185 -1.56584875 5.48192275 -2 8 C-3.32 7.34 -4.64 6.68 -6 6 C-4.02 4.02 -2.04 2.04 0 0 Z " fill="#4D3344" transform="translate(146,304)"/>
<path d="M0 0 C3.36179774 1.44077046 5.59156268 3.24750021 8 6 C8 6.66 8 7.32 8 8 C4.63820226 6.55922954 2.40843732 4.75249979 0 2 C0 1.34 0 0.68 0 0 Z " fill="#BB5250" transform="translate(148,210)"/>
<path d="M0 0 C2.475 0.495 2.475 0.495 5 1 C4.67 2.98 4.34 4.96 4 7 C0 2.25 0 2.25 0 0 Z " fill="#17414D" transform="translate(435,199)"/>
<path d="M0 0 C-0.33 1.65 -0.66 3.3 -1 5 C-2.32 5 -3.64 5 -5 5 C-5 4.01 -5 3.02 -5 2 C-2 0 -2 0 0 0 Z " fill="#DC5338" transform="translate(184,195)"/>
<path d="M0 0 C2.5654594 2.5654594 2.54046087 4.47686668 3 8 C1.68 8.33 0.36 8.66 -1 9 C-0.67 6.03 -0.34 3.06 0 0 Z " fill="#394862" transform="translate(57,190)"/>
<path d="M0 0 C2.97 0.495 2.97 0.495 6 1 C6.33 2.98 6.66 4.96 7 7 C5.83040013 6.02433888 4.66438823 5.044375 3.5 4.0625 C2.8503125 3.51722656 2.200625 2.97195312 1.53125 2.41015625 C1.0259375 1.94480469 0.520625 1.47945312 0 1 C0 0.67 0 0.34 0 0 Z " fill="#653F4F" transform="translate(238,168)"/>
<path d="M0 0 C-1.36983503 3.16115776 -1.9890638 3.9927092 -5 6 C-5.99 5.67 -6.98 5.34 -8 5 C-2.25 0 -2.25 0 0 0 Z " fill="#CC5356" transform="translate(88,159)"/>
<path d="M0 0 C1.65 1.65 3.3 3.3 5 5 C2.36 5 -0.28 5 -3 5 C-2.67 4.34 -2.34 3.68 -2 3 C-1.34 3 -0.68 3 0 3 C0 2.01 0 1.02 0 0 Z " fill="#4A404D" transform="translate(79,347)"/>
<path d="M0 0 C0.99 1.32 1.98 2.64 3 4 C2.67 4.66 2.34 5.32 2 6 C-0.5625 6.625 -0.5625 6.625 -3 7 C-1.125 2.25 -1.125 2.25 0 0 Z " fill="#152C3B" transform="translate(438,308)"/>
<path d="M0 0 C1.65 0 3.3 0 5 0 C5 0.66 5 1.32 5 2 C6.65 2.33 8.3 2.66 10 3 C9.01 3.99 8.02 4.98 7 6 C5.5 4.625 5.5 4.625 4 3 C4 2.34 4 1.68 4 1 C2.68 0.67 1.36 0.34 0 0 Z " fill="#5A445D" transform="translate(96,159)"/>
<path d="M0 0 C0.33 0.66 0.66 1.32 1 2 C0.22265625 3.7265625 0.22265625 3.7265625 -0.9375 5.625 C-1.618125 6.73875 -2.29875 7.8525 -3 9 C-3.99 8.67 -4.98 8.34 -6 8 C-4.02 5.36 -2.04 2.72 0 0 Z " fill="#0F3D45" transform="translate(437,308)"/>
<path d="M0 0 C1.32 0 2.64 0 4 0 C3.67 1.65 3.34 3.3 3 5 C2.01 4.67 1.02 4.34 0 4 C0 2.68 0 1.36 0 0 Z " fill="#362E4B" transform="translate(228,286)"/>
<path d="M0 0 C0.6875 1.8125 0.6875 1.8125 1 4 C-0.4375 5.75 -0.4375 5.75 -2 7 C-2.66 6.67 -3.32 6.34 -4 6 C-2.68 4.02 -1.36 2.04 0 0 Z " fill="#393245" transform="translate(210,240)"/>
<path d="M0 0 C0.66 0.33 1.32 0.66 2 1 C0.1875 4 0.1875 4 -2 7 C-2.99 7 -3.98 7 -5 7 C-3.88820837 3.66462511 -2.52588702 2.36292656 0 0 Z " fill="#472F41" transform="translate(245,205)"/>
<path d="M0 0 C0.99 0.33 1.98 0.66 3 1 C3.33 2.98 3.66 4.96 4 7 C2.35 5.68 0.7 4.36 -1 3 C-0.67 2.01 -0.34 1.02 0 0 Z " fill="#394365" transform="translate(133,189)"/>
<path d="M0 0 C1.98 0 3.96 0 6 0 C1.25 4.875 1.25 4.875 -1 6 C-0.67 4.02 -0.34 2.04 0 0 Z " fill="#66435C" transform="translate(77,162)"/>
</svg>
